<svg width="159" height="34" viewBox="0 0 159 34" fill="none" xmlns="http://www.w3.org/2000/svg">
<path d="M44.608 19.96V17.416H51.712C52.56 17.416 53.232 17.192 53.728 16.744C54.224 16.28 54.472 15.64 54.472 14.824C54.472 13.976 54.224 13.328 53.728 12.88C53.232 12.432 52.56 12.208 51.712 12.208H44.992V25H41.8V9.472H51.424C52.288 9.472 53.096 9.576 53.848 9.784C54.616 9.992 55.28 10.312 55.84 10.744C56.416 11.176 56.864 11.728 57.184 12.4C57.504 13.072 57.664 13.88 57.664 14.824C57.664 15.752 57.504 16.544 57.184 17.2C56.864 17.856 56.416 18.392 55.84 18.808C55.28 19.208 54.616 19.504 53.848 19.696C53.096 19.872 52.288 19.96 51.424 19.96H44.608ZM65.6699 25.264C64.4859 25.264 63.4059 25.008 62.4299 24.496C61.4699 23.968 60.7019 23.24 60.1259 22.312C59.5659 21.368 59.2859 20.28 59.2859 19.048C59.2859 17.784 59.5739 16.688 60.1499 15.76C60.7259 14.832 61.5019 14.112 62.4779 13.6C63.4699 13.072 64.5899 12.808 65.8379 12.808C67.2139 12.808 68.3179 13.088 69.1499 13.648C69.9979 14.192 70.6139 14.936 70.9979 15.88C71.3819 16.824 71.5739 17.88 71.5739 19.048C71.5739 19.752 71.4619 20.472 71.2379 21.208C71.0139 21.928 70.6699 22.6 70.2059 23.224C69.7419 23.832 69.1339 24.328 68.3819 24.712C67.6299 25.08 66.7259 25.264 65.6699 25.264ZM66.6779 22.864C67.6219 22.864 68.4379 22.704 69.1259 22.384C69.8139 22.064 70.3419 21.616 70.7099 21.04C71.0779 20.464 71.2619 19.8 71.2619 19.048C71.2619 18.232 71.0699 17.544 70.6859 16.984C70.3179 16.408 69.7899 15.976 69.1019 15.688C68.4299 15.384 67.6219 15.232 66.6779 15.232C65.3499 15.232 64.3179 15.584 63.5819 16.288C62.8459 16.976 62.4779 17.896 62.4779 19.048C62.4779 19.816 62.6539 20.488 63.0059 21.064C63.3579 21.624 63.8459 22.064 64.4699 22.384C65.1099 22.704 65.8459 22.864 66.6779 22.864ZM71.2619 13.072H74.3819V25H71.4779C71.4779 25 71.4539 24.848 71.4059 24.544C71.3739 24.224 71.3419 23.824 71.3099 23.344C71.2779 22.864 71.2619 22.392 71.2619 21.928V13.072ZM76.3656 13.072H85.6296V15.496H76.3656V13.072ZM79.4376 9.808H82.5576V25H79.4376V9.808ZM98.5079 25V18.448C98.5079 17.792 98.3959 17.248 98.1719 16.816C97.9479 16.384 97.5879 16.056 97.0919 15.832C96.6119 15.608 95.9639 15.496 95.1479 15.496C94.3639 15.496 93.6519 15.648 93.0119 15.952C92.3719 16.24 91.8519 16.624 91.4519 17.104C91.0519 17.568 90.8279 18.064 90.7799 18.592L90.7559 17.272C90.8359 16.744 91.0199 16.216 91.3079 15.688C91.5959 15.16 91.9799 14.68 92.4599 14.248C92.9399 13.816 93.5159 13.472 94.1879 13.216C94.8759 12.944 95.6439 12.808 96.4919 12.808C97.2279 12.808 97.9079 12.904 98.5319 13.096C99.1559 13.272 99.6999 13.552 100.164 13.936C100.628 14.32 100.988 14.8 101.244 15.376C101.5 15.936 101.628 16.6 101.628 17.368V25H98.5079ZM87.8279 25V8.272H90.9479V25H87.8279ZM119.781 22.84L118.797 22.816L122.685 13.072H126.117L120.861 25H117.933L114.093 15.376H115.149L111.189 25H108.261L103.149 13.072H106.581L110.325 22.84H109.341L112.845 13.072H116.421L119.781 22.84ZM133.217 25.264C132.033 25.264 130.953 25.008 129.977 24.496C129.017 23.968 128.249 23.24 127.673 22.312C127.113 21.368 126.833 20.28 126.833 19.048C126.833 17.784 127.121 16.688 127.697 15.76C128.273 14.832 129.049 14.112 130.025 13.6C131.017 13.072 132.137 12.808 133.385 12.808C134.761 12.808 135.865 13.088 136.697 13.648C137.545 14.192 138.161 14.936 138.545 15.88C138.929 16.824 139.121 17.88 139.121 19.048C139.121 19.752 139.009 20.472 138.785 21.208C138.561 21.928 138.217 22.6 137.753 23.224C137.289 23.832 136.681 24.328 135.929 24.712C135.177 25.08 134.273 25.264 133.217 25.264ZM134.225 22.864C135.169 22.864 135.985 22.704 136.673 22.384C137.361 22.064 137.889 21.616 138.257 21.04C138.625 20.464 138.809 19.8 138.809 19.048C138.809 18.232 138.617 17.544 138.233 16.984C137.865 16.408 137.337 15.976 136.649 15.688C135.977 15.384 135.169 15.232 134.225 15.232C132.897 15.232 131.865 15.584 131.129 16.288C130.393 16.976 130.025 17.896 130.025 19.048C130.025 19.816 130.201 20.488 130.553 21.064C130.905 21.624 131.393 22.064 132.017 22.384C132.657 22.704 133.393 22.864 134.225 22.864ZM138.809 13.072H141.929V25H139.025C139.025 25 139.001 24.848 138.953 24.544C138.921 24.224 138.889 23.824 138.857 23.344C138.825 22.864 138.809 22.392 138.809 21.928V13.072ZM143.673 13.072H146.985L152.145 24.52L149.457 25L143.673 13.072ZM158.265 13.072L150.009 29.8H146.769L150.297 23.224L154.929 13.072H158.265Z" fill="#FF7B29"/>
<path d="M15.4068 0.0727539C9.5918 0.612885 4.6265 4.08171 2 8.99004L6.12922 16.142L15.4068 0.0727539Z" fill="#31C3E0"/>
<path d="M1.52424 9.95508C0.545347 12.1017 0 14.4876 0 17.0008C0 20.0973 0.827845 23.0005 2.27433 25.5009H10.4997L1.52424 9.95508Z" fill="#31C3E0"/>
<path d="M2.82812 26.3945C5.8732 30.9784 11.083 33.9999 16.9986 33.9999C17.1351 33.9999 17.2711 33.9983 17.4067 33.995L21.7949 26.3945H2.82812Z" fill="#31C3E0"/>
<path d="M18.4727 33.9372C24.3951 33.4282 29.4498 29.8828 32.073 24.8652L27.8917 17.623L18.4727 33.9372Z" fill="#31C3E0"/>
<path d="M32.546 23.8906C33.4809 21.7845 34.0004 19.4529 34.0004 17.0001C34.0004 13.9036 33.1725 11.0005 31.726 8.5H23.6602L32.546 23.8906Z" fill="#31C3E0"/>
<path d="M31.1718 7.60533H12.0938L16.4801 0.00782898C16.6532 0.00262157 16.827 0 17.0012 0C22.9169 0 28.1267 3.02146 31.1718 7.60533Z" fill="#31C3E0"/>
<path d="M14.6987 19.06V17.576H18.8427C19.3374 17.576 19.7294 17.4453 20.0187 17.184C20.3081 16.9133 20.4527 16.54 20.4527 16.064C20.4527 15.5693 20.3081 15.1913 20.0187 14.93C19.7294 14.6687 19.3374 14.538 18.8427 14.538H14.9227V22H13.0607V12.942H18.6747C19.1787 12.942 19.6501 13.0027 20.0887 13.124C20.5367 13.2453 20.9241 13.432 21.2507 13.684C21.5867 13.936 21.8481 14.258 22.0347 14.65C22.2214 15.042 22.3147 15.5133 22.3147 16.064C22.3147 16.6053 22.2214 17.0673 22.0347 17.45C21.8481 17.8327 21.5867 18.1453 21.2507 18.388C20.9241 18.6213 20.5367 18.794 20.0887 18.906C19.6501 19.0087 19.1787 19.06 18.6747 19.06H14.6987Z" fill="#31C3E0"/>
</svg>
